<?xml version="1.0" encoding="utf-8"?>
<!-- Generator: Adobe Illustrator 19.0.0, SVG Export Plug-In . SVG Version: 6.00 Build 0)  -->
<svg version="1.1" id="layer" xmlns="http://www.w3.org/2000/svg" xmlns:xlink="http://www.w3.org/1999/xlink" x="0px" y="0px"
	 viewBox="-153 -46 652 652" style="enable-background:new -153 -46 652 652;" xml:space="preserve">
<style type="text/css">
	.st0{fill:#79BD28;}
	.st1{fill:#484849;}
</style>
<g>
	<path class="st0" d="M227.6,294h-13.3l1.7-6.6h-33.2c0.8-3,1.4-5.1,2.1-6.4c1.1-2.2,2.6-3.8,4.7-4.9c2.4-1.3,5.7-2,9.9-2h19.9
		c4.1,0,7.1,0.6,8.8,1.9c1.5,1.1,2.2,2.7,2.2,4.9c0,1.3-0.4,3.4-1.1,6.4L227.6,294z M222.6,313.9c-0.8,3-1.5,5.1-2.1,6.4
		c-1.1,2.2-2.7,3.8-4.7,4.9c-2.4,1.3-5.7,2-9.9,2h-19.9c-4.1,0-7.1-0.6-8.8-1.9c-1.5-1.1-2.2-2.7-2.2-4.9c0-1.3,0.4-3.4,1.1-6.4
		l5-19.9h13.3l-5,19.9h19.9l1.7-6.6h13.3L222.6,313.9z"/>
	<path class="st0" d="M281.4,294h-13.3l1.7-6.6h-33.2c0.8-3,1.4-5.1,2.1-6.4c1.1-2.2,2.6-3.8,4.7-4.9c2.4-1.3,5.7-2,9.9-2h19.9
		c4.1,0,7.1,0.6,8.8,1.9c1.5,1.1,2.2,2.7,2.2,4.9c0,1.3-0.4,3.4-1.1,6.4L281.4,294z M276.4,313.9c-0.8,3-1.5,5.1-2.1,6.4
		c-1.1,2.2-2.7,3.8-4.7,4.9c-2.4,1.3-5.7,2-9.9,2h-19.9c-4.1,0-7.1-0.6-8.8-1.9c-1.5-1.1-2.2-2.7-2.2-4.9c0-1.3,0.4-3.4,1.1-6.4
		l5-19.9h13.3l-5,19.9h19.9l1.7-6.6h13.3L276.4,313.9z"/>
	<path class="st0" d="M337.8,287.4h-46.4l3.3-13.3h46.4L337.8,287.4z M327.7,327.2h-46.4l8.4-33.2h33.2l-3.3,13.3h-19.9l-1.7,6.6
		h33.2L327.7,327.2z"/>
	<path class="st0" d="M390.8,287.4h-46.4c1-3.8,2.7-6.8,5.1-9.1c3-2.8,6.8-4.1,11.5-4.1h19.9c4.1,0,7.1,0.6,8.8,1.9
		c1.5,1.1,2.2,2.7,2.2,4.9C391.9,282.3,391.6,284.5,390.8,287.4 M384.1,313.9c-0.8,3-1.5,5.1-2.1,6.4c-1.1,2.2-2.7,3.8-4.7,4.9
		c-2.4,1.3-5.7,2-9.9,2h-19.9c-4.1,0-7.1-0.6-8.8-1.9c-1.5-1.1-2.2-2.7-2.2-4.9c0-1.3,0.4-3.4,1.1-6.4h33.2l1.7-6.6h-19.9
		c-4.1,0-7.1-0.6-8.8-1.9c-1.5-1.1-2.2-2.7-2.2-4.9c0-1.3,0.4-3.4,1.1-6.4h33.2c4.1,0,7.1,0.6,8.8,1.9c1.5,1.1,2.2,2.7,2.2,4.9
		c0,1.3-0.4,3.4-1.1,6.4L384.1,313.9z"/>
	<path class="st0" d="M443.9,287.4h-46.4c1-3.8,2.7-6.8,5.1-9.1c3-2.8,6.8-4.1,11.5-4.1H434c4.1,0,7.1,0.6,8.8,1.9
		c1.5,1.1,2.2,2.7,2.2,4.9C445,282.3,444.6,284.5,443.9,287.4 M437.2,313.9c-0.8,3-1.5,5.1-2.1,6.4c-1.1,2.2-2.7,3.8-4.7,4.9
		c-2.4,1.3-5.7,2-9.9,2h-19.9c-4.1,0-7.1-0.6-8.8-1.9c-1.5-1.1-2.2-2.7-2.2-4.9c0-1.3,0.4-3.4,1.1-6.4h33.2l1.7-6.6h-19.9
		c-4.1,0-7.1-0.6-8.8-1.9c-1.5-1.1-2.2-2.7-2.2-4.9c0-1.3,0.4-3.4,1.1-6.4H429c4.1,0,7.1,0.6,8.8,1.9c1.5,1.1,2.2,2.7,2.2,4.9
		c0,1.3-0.4,3.4-1.1,6.4L437.2,313.9z"/>
	<polygon class="st1" points="73,327.2 42.1,263.5 93.4,223.2 62.5,223.2 6,269.7 16.2,223.2 -6.6,223.2 -26.3,309.8 -98.5,310.2 
		-17.8,239.5 -13.8,223.2 -100.4,223.2 -104.2,240.6 -50.6,240.6 -128.7,310.8 -131.7,327.2 -30.3,327.2 -28.2,327.2 -7.3,327.2 
		-0.3,296.5 22.5,278.9 42.6,327.2 50.4,327.2 	"/>
	<path class="st0" d="M458.1,249.5c5.7,0,10.2,4.5,10.2,10c0,5.7-4.5,10.1-10.3,10.1c-5.7,0-10.3-4.4-10.3-10.1
		C447.8,253.9,452.3,249.5,458.1,249.5L458.1,249.5z M458,251.5c-4.4,0-7.7,3.6-7.7,8c0,4.5,3.3,8,7.8,8c4.4,0.1,7.6-3.5,7.6-8
		C465.8,255.1,462.5,251.5,458,251.5L458,251.5z M456.5,264.7h-2.3v-10c0.9-0.2,2.2-0.4,3.8-0.4c1.9,0,2.7,0.3,3.5,0.8
		c0.5,0.4,1,1.2,1,2.1c0,1.2-0.9,2-2.1,2.4v0.1c1,0.3,1.5,1.1,1.8,2.4c0.3,1.5,0.5,2.1,0.7,2.4h-2.5c-0.3-0.4-0.5-1.2-0.8-2.4
		c-0.2-1.1-0.8-1.6-2.1-1.6h-1.1V264.7z M456.6,259h1.1c1.3,0,2.3-0.4,2.3-1.5c0-0.9-0.7-1.5-2.1-1.5c-0.6,0-1,0.1-1.3,0.1V259z"/>
	<path class="st0" d="M73,327.2h3.2l13.8-23h48l3.5,23h27.4l-23.2-104h-23.8l-58.3,84.8 M102.3,286.9l26-39.5l7.2,39.5H102.3z"/>
</g>
</svg>
